<svg xmlns="http://www.w3.org/2000/svg" width="20" height="20" viewBox="0 0 20 20">
    <g fill="#FFF" fill-rule="nonzero">
        <path d="M10.008 20C4.504 20 0 15.5 0 10S4.504 0 10.008 0c5.505 0 10.009 4.5 10.009 10s-4.504 10-10.009 10zm0-18.333c-4.587 0-8.34 3.75-8.34 8.333s3.753 8.333 8.34 8.333 8.34-3.75 8.34-8.333-3.753-8.333-8.34-8.333z"/>
        <path d="M10.008 10.833c-.5 0-.834-.333-.834-.833V4.167c0-.5.334-.834.834-.834.5 0 .834.334.834.834V10c0 .5-.333.833-.834.833z"/>
        <path d="M13.344 14.167a.757.757 0 0 1-.583-.25l-3.336-3.334a.805.805 0 0 1 0-1.166.807.807 0 0 1 1.167 0l3.336 3.333a.805.805 0 0 1 0 1.167.757.757 0 0 1-.584.25z"/>
    </g>
</svg>
