<svg xmlns="http://www.w3.org/2000/svg" width="30" height="22" viewBox="0 0 30 22">
    <g fill="none" fill-rule="nonzero">
        <path fill="#E30000" d="M25.523 5.66H19.34v11.207h10.13v-5.044L28.288 7.74a2.88 2.88 0 0 0-2.765-2.08"/>
        <path fill="#84DBFF" d="M27.99 11.771l-1.052-3.64a1.482 1.482 0 0 0-1.415-1.063h-4.776v4.703h7.244z"/>
        <path fill="#CDD6E0" d="M27.992 11.77h-7.247V7.066z"/>
        <path fill="#F2F2F2" d="M27.99 11.771l-1.052-3.64a1.482 1.482 0 0 0-1.415-1.063h-4.776l7.244 4.703z"/>
        <path fill="#34957C" d="M1.871.035h15.597c1.033 0 1.872.838 1.872 1.871v14.96H0V1.906C0 .873.838.035 1.871.035"/>
        <path fill="#F2F2F2" d="M12.675.038v4.945l-.723-.724-.759.759-.758-.759-.758.759-.759-.759-.768.759-.757-.759-.732.733V.038z"/>
        <path fill="#A3A3A3" d="M29.944 16.866v2.114H.003v-2.114h3.125A4.28 4.28 0 0 1 6.87 14.67c1.603 0 3.007.886 3.743 2.196h10.055a4.269 4.269 0 0 1 3.736-2.196c1.61 0 3.007.886 3.743 2.196h1.797z"/>
        <path fill="#494949" d="M27.393 18.967a2.989 2.989 0 1 1-5.977 0 2.989 2.989 0 0 1 5.977 0"/>
        <path fill="#ACB3BA" d="M25.606 18.967a1.2 1.2 0 1 1-2.4 0 1.2 1.2 0 0 1 2.4 0"/>
        <path fill="#494949" d="M9.856 18.967a2.989 2.989 0 1 1-5.978 0 2.989 2.989 0 0 1 5.978 0"/>
        <path fill="#ACB3BA" d="M8.068 18.967a1.2 1.2 0 1 1-2.4.001 1.2 1.2 0 0 1 2.4 0"/>
    </g>
</svg>
