<svg xmlns="http://www.w3.org/2000/svg" width="20" height="20" viewBox="0 0 20 20">
    <path fill="#FFF" fill-rule="nonzero" d="M19.94 5.878a7.34 7.34 0 0 0-.464-2.428 4.902 4.902 0 0 0-1.155-1.771A4.902 4.902 0 0 0 16.55.524 7.34 7.34 0 0 0 14.123.06C13.056.011 12.716 0 10 0S6.944.011 5.878.06A7.34 7.34 0 0 0 3.45.524 4.902 4.902 0 0 0 1.678 1.68c-.51.5-.903 1.104-1.155 1.771A7.34 7.34 0 0 0 .06 5.877C.01 6.944 0 7.284 0 10s.011 3.056.06 4.122c.016.83.174 1.65.464 2.428a4.902 4.902 0 0 0 1.155 1.771c.5.51 1.104.903 1.771 1.155a7.34 7.34 0 0 0 2.427.464c1.067.049 1.407.06 4.123.06s3.056-.011 4.122-.06a7.34 7.34 0 0 0 2.428-.464 5.113 5.113 0 0 0 2.926-2.926 7.34 7.34 0 0 0 .464-2.427c.049-1.067.06-1.407.06-4.123s-.011-3.056-.06-4.122zm-1.8 8.163a5.531 5.531 0 0 1-.344 1.856 3.311 3.311 0 0 1-1.898 1.899 5.532 5.532 0 0 1-1.857.344c-1.055.048-1.371.058-4.041.058-2.67 0-2.987-.01-4.041-.058a5.532 5.532 0 0 1-1.856-.344 3.098 3.098 0 0 1-1.15-.748 3.098 3.098 0 0 1-.749-1.15 5.531 5.531 0 0 1-.344-1.857c-.048-1.055-.058-1.371-.058-4.041 0-2.67.01-2.987.058-4.041a5.532 5.532 0 0 1 .344-1.856c.16-.434.416-.828.748-1.15a3.098 3.098 0 0 1 1.15-.749A5.532 5.532 0 0 1 5.96 1.86C7.014 1.812 7.33 1.802 10 1.802c2.67 0 2.987.01 4.041.058a5.532 5.532 0 0 1 1.856.344c.434.16.828.416 1.15.748.333.323.588.716.749 1.15.22.595.336 1.223.344 1.857.048 1.055.058 1.371.058 4.041 0 2.67-.01 2.987-.058 4.041zM10 4.864a5.136 5.136 0 1 0 0 10.272 5.136 5.136 0 0 0 0-10.272zm0 8.47a3.333 3.333 0 1 1 0-6.667 3.333 3.333 0 0 1 0 6.666zm6.538-8.672a1.2 1.2 0 1 1-2.4 0 1.2 1.2 0 0 1 2.4 0z"/>
</svg>
