<svg xmlns="http://www.w3.org/2000/svg" width="36" height="50" viewBox="0 0 36 50">
    <g fill="none" fill-rule="evenodd">
        <path fill="#FFF" d="M18.723 47.602L2.656 26.762l2-19.188 14.067-6.433 12.922 6.433 1 19.188z"/>
        <path fill="#10B4A4" fill-rule="nonzero" d="M30.109 4.293C27.01 1.522 22.663 0 17.935 0S8.859 1.522 5.76 4.293C1.957 7.663 0 12.717 0 19.022c0 13.641 15.707 29.674 16.413 30.326.435.435.978.652 1.522.652.543 0 1.141-.217 1.522-.652.706-.652 16.413-16.685 16.413-30.326 0-6.305-1.957-11.359-5.761-14.729zM17.935 44.62c-1.468-1.63-3.805-4.348-6.087-7.61-4.891-6.956-7.5-13.151-7.5-17.988 0-13.587 10.38-14.674 13.587-14.674 12.608 0 13.587 11.25 13.587 14.674 0 9.565-9.729 21.358-13.587 25.598zm0-35.218c-4.783 0-8.642 3.968-8.642 8.805 0 4.836 3.86 8.75 8.642 8.75s8.641-3.968 8.641-8.805-3.859-8.75-8.641-8.75zm0 13.75c-2.663 0-4.837-2.228-4.837-5s2.174-5 4.837-5 4.837 2.228 4.837 5-2.174 5-4.837 5z"/>
    </g>
</svg>
