<svg xmlns="http://www.w3.org/2000/svg" xmlns:xlink="http://www.w3.org/1999/xlink" width="29" height="28" viewBox="0 0 29 28">
    <defs>
        <path id="a" d="M0 29.688h29.688V0H0z"/>
    </defs>
    <g fill="none" fill-rule="evenodd" transform="matrix(1 0 0 -1 0 28.688)">
        <mask id="b" fill="#fff">
            <use xlink:href="#a"/>
        </mask>
        <g mask="url(#b)">
            <path fill="#FDD888" fill-rule="nonzero" d="M26.563 4.688a3.134 3.134 0 0 0-3.125-3.125H6.25a3.134 3.134 0 0 0-3.125 3.125v13.28a3.134 3.134 0 0 0 3.125 3.126h17.188a3.134 3.134 0 0 0 3.125-3.125V4.687z"/>
            <path fill="#FDD888" fill-rule="nonzero" d="M28.906 20.313a3.134 3.134 0 0 0-3.125-3.125H3.906a3.134 3.134 0 0 0-3.125 3.125 3.134 3.134 0 0 0 3.125 3.125h21.875a3.134 3.134 0 0 0 3.125-3.125"/>
            <path fill="#FCAB40" fill-rule="nonzero" d="M26.563 15.625H3.125v1.563h23.438z"/>
            <path fill="#DA2F47" fill-rule="nonzero" d="M15.625 26.562h-1.563a2.344 2.344 0 0 1-2.343-2.344V1.562h6.25v22.656a2.344 2.344 0 0 1-2.344 2.344"/>
            <path fill="#DA2F47" fill-rule="nonzero" d="M13.281 23.438c.86 0 .987.403.282.896L8.312 28.01a1.403 1.403 0 0 1-2.056-.46l-1.575-2.756c-.426-.746-.072-1.357.788-1.357h7.812zM16.406 23.438c-.86 0-.986.403-.282.896l5.252 3.676a1.403 1.403 0 0 0 2.055-.46l1.575-2.756c.427-.746.072-1.357-.787-1.357h-7.813z"/>
        </g>
    </g>
</svg>
