<svg xmlns="http://www.w3.org/2000/svg" width="30" height="25" viewBox="0 0 30 25">
    <path fill="#FFF" fill-rule="nonzero" d="M6.25 23.214a1.786 1.786 0 1 0 3.571 0 1.786 1.786 0 0 0-3.571 0zm16.071 0a1.786 1.786 0 1 0 3.572 0 1.786 1.786 0 0 0-3.572 0zM.841.893c0 .493.4.893.893.893h1.855L4.7 6.529l1.551 7.757c0 .064.03.12.037.182l-.908 4.09a.89.89 0 0 0 .871 1.085h20.257a.893.893 0 0 0 0-1.786H7.364l.41-1.84c.088.015.169.054.262.054h16.276c.986 0 1.58-.194 2.056-1.339l2.9-8.896c.503-1.595-.602-2.265-1.59-2.265H6.25c-.14 0-.26.049-.391.079L5.166.69a.893.893 0 0 0-.87-.69H1.734C1.24 0 .84.4.84.893zm5.445 4.464h21.259l-2.85 8.748a1.872 1.872 0 0 1-.084.17c-.06.005-.152.01-.299.01H8.037v-.176l-.034-.173-1.716-8.579z"/>
</svg>
