<svg xmlns="http://www.w3.org/2000/svg" width="41" height="26" viewBox="0 0 41 26">
    <g fill="none" fill-rule="evenodd" stroke="#FFF" stroke-width="1.5">
        <path d="M31 22.5a2.5 2.5 0 1 0 5 0 2.5 2.5 0 0 0-5 0zM8 22.5a2.5 2.5 0 1 0 5 0 2.5 2.5 0 0 0-5 0z"/>
        <path d="M8.467 21H7.63C6.178 21 5 19.799 5 18.317V3.683C5 2.2 6.178 1 7.63 1h16.74C25.822 1 27 2.201 27 3.683v17.28H12.452M31.496 20.975H28v-12.3c0-1.245 1.04-1.992 1.986-1.544l7.997 3.735c1.305.717 2.08 2.048 2.013 3.461v3.063c0 1.992-1.333 3.61-2.826 3.61h-1.525M28 16h11.607"/>
        <path stroke-linecap="round" d="M1 9h8M1 12h15"/>
    </g>
</svg>
