<svg xmlns="http://www.w3.org/2000/svg" width="20" height="20" viewBox="0 0 20 20">
    <path fill="#000" fill-rule="nonzero" d="M14.634 19.326c-.761 0-1.51-.199-2.171-.576l-.1-.058A29.29 29.29 0 0 1 1.8 8.36l-.492-.82a4.322 4.322 0 0 1 .653-5.288l.981-.981a2.058 2.058 0 0 1 2.907 0l2.164 2.162c.65.653.788 1.657.338 2.46l-.813 1.443a.221.221 0 0 0 .036.263l4.817 4.813c.07.07.178.085.265.037l1.442-.812h.001a2.062 2.062 0 0 1 2.462.337l2.165 2.163a2.055 2.055 0 0 1 0 2.904L17.7 18.066a4.339 4.339 0 0 1-3.066 1.26zM4.394 2.049c-.178 0-.35.07-.477.197l-.981.98A2.946 2.946 0 0 0 2.49 6.83l.493.82a27.909 27.909 0 0 0 10.067 9.847l.1.057a2.978 2.978 0 0 0 3.572-.464l1.026-1.024a.675.675 0 0 0 0-.955l-2.166-2.163a.677.677 0 0 0-.809-.11l-1.443.812a1.608 1.608 0 0 1-1.917-.263L6.597 8.574a1.602 1.602 0 0 1-.263-1.915l.813-1.443a.678.678 0 0 0-.111-.808L4.872 2.246a.674.674 0 0 0-.477-.197z"/>
</svg>
