<svg xmlns="http://www.w3.org/2000/svg" width="20" height="19" viewBox="0 0 20 19">
    <path fill="#FFF" fill-rule="evenodd" d="M11.195 1.296v4.536a1.296 1.296 0 1 1-2.591 0V1.296a1.296 1.296 0 0 1 2.591 0zM1.697 6.37L6.01 7.772a1.296 1.296 0 1 1-.8 2.465L.895 8.835a1.296 1.296 0 0 1 .8-2.465zm1.837 10.523l2.666-3.67a1.296 1.296 0 1 1 2.097 1.524l-2.666 3.67a1.296 1.296 0 1 1-2.097-1.524zm10.7 1.523l-2.665-3.67a1.296 1.296 0 1 1 2.096-1.523l2.666 3.67a1.296 1.296 0 1 1-2.096 1.523zm4.736-9.581l-4.314 1.402a1.296 1.296 0 1 1-.801-2.465l4.314-1.402a1.296 1.296 0 1 1 .8 2.465z"/>
</svg>
