<svg xmlns="http://www.w3.org/2000/svg" width="20" height="20" viewBox="0 0 20 20">
    <path fill="#FFF" fill-rule="evenodd" d="M3.465 17.57a10.062 10.062 0 0 1-1.073-1.08c.074-.118.116-.298.116-.549 0-2.16.66-5.92 4.002-8.56a2.222 2.222 0 0 0 3.391-2.48c.191-.277.093-.42-.195-.45a2.221 2.221 0 0 0-4.125 1.44c-2.019.995-3.542 1.935-5.086 4.916-.155.3-.27.602-.35.904A10.065 10.065 0 0 1 0 10C0 4.477 4.477 0 10 0s10 4.477 10 10-4.477 10-10 10a9.994 9.994 0 0 1-3.047-.473c.017-.075.032-.152.045-.233.584-3.578 2.128-6.684 6.6-9.29a94.3 94.3 0 0 0 .026-.015 2.221 2.221 0 1 0-.264-1.445c-.145.044-.294.09-.447.139-4.58 1.434-7.954 4.982-9.31 8.469-.055.141-.1.28-.138.417z"/>
</svg>
